<svg width="1em" height="1em" viewBox="0 0 24 24" fill="none" xmlns="http://www.w3.org/2000/svg">
  <path fill-rule="evenodd" clip-rule="evenodd"
    d="M5.51743,4.26035c-0.347,-0.347,-0.91,-0.347,-1.257,0c-0.347,0.347,-0.347,0.91,0,1.257l6.482,6.483l-6.482,6.482c-0.347,0.347,-0.347,0.91,0,1.257c0.347,0.347,0.91,0.347,1.257,0l6.483,-6.482l6.482,6.482c0.347,0.347,0.91,0.347,1.257,0c0.347,-0.347,0.347,-0.91,0,-1.257l-6.482,-6.482l6.482,-6.483c0.347,-0.347,0.347,-0.91,0,-1.257c-0.347,-0.347,-0.91,-0.347,-1.257,0l-6.482,6.483l-6.483,-6.483z"
    fill="#222222" />
</svg>