<svg width="1em" height="1em" viewBox="0 0 30 30" fill="none" xmlns="http://www.w3.org/2000/svg">
  <path
    d="M24.6714,23.0942l-3.776,-3.765c1.218,-1.553,1.879,-3.47,1.877,-5.443c0,-1.758,-0.521,-3.476,-1.498,-4.937c-0.976,-1.461,-2.364,-2.6,-3.988,-3.273c-1.623,-0.672,-3.41,-0.848,-5.134,-0.505c-1.724,0.342,-3.307,1.189,-4.55,2.431c-1.242,1.243,-2.089,2.826,-2.432,4.55c-0.343,1.724,-0.167,3.511,0.506,5.134c0.673,1.624,1.812,3.012,3.273,3.988c1.461,0.977,3.179,1.498,4.937,1.498c1.973,0.002,3.89,-0.659,5.442,-1.877l3.766,3.776c0.103,0.104,0.226,0.187,0.361,0.243c0.136,0.057,0.281,0.086,0.427,0.086c0.147,0,0.292,-0.029,0.428,-0.086c0.135,-0.056,0.258,-0.139,0.361,-0.243c0.104,-0.103,0.187,-0.226,0.243,-0.361c0.057,-0.136,0.086,-0.281,0.086,-0.427c0,-0.147,-0.029,-0.292,-0.086,-0.428c-0.056,-0.135,-0.139,-0.258,-0.243,-0.361zm-17.45,-9.208c0,-1.318,0.391,-2.607,1.123,-3.703c0.733,-1.096,1.773,-1.95,2.991,-2.454c1.218,-0.505,2.558,-0.637,3.851,-0.38c1.293,0.258,2.48,0.892,3.412,1.824c0.932,0.932,1.567,2.12,1.824,3.413c0.257,1.292,0.125,2.632,-0.379,3.85c-0.505,1.218,-1.359,2.259,-2.455,2.991c-1.096,0.732,-2.384,1.123,-3.702,1.123c-1.768,0,-3.463,-0.702,-4.713,-1.952c-1.25,-1.25,-1.952,-2.945,-1.952,-4.712z"
    fill="#353C49" />
</svg>