<svg width="1em" height="1em" viewBox="0 0 16 16" fill="none" xmlns="http://www.w3.org/2000/svg">
  <path
    d="M7.99992,14l-0.967,-0.867c-1.122,-1.011,-2.05,-1.883,-2.783,-2.616c-0.733,-0.734,-1.317,-1.392,-1.75,-1.976c-0.433,-0.583,-0.736,-1.119,-0.908,-1.608c-0.172,-0.489,-0.259,-0.989,-0.259,-1.5c0,-1.044,0.35,-1.916,1.05,-2.616c0.7,-0.7,1.573,-1.05,2.617,-1.05c0.578,0,1.128,0.122,1.65,0.366c0.522,0.245,0.972,0.589,1.35,1.034c0.378,-0.445,0.828,-0.789,1.35,-1.034c0.522,-0.244,1.072,-0.366,1.65,-0.366c1.044,0,1.917,0.35,2.617,1.05c0.7,0.7,1.05,1.572,1.05,2.616c0,0.511,-0.086,1.011,-0.258,1.5c-0.173,0.489,-0.476,1.025,-0.909,1.608c-0.433,0.584,-1.017,1.242,-1.75,1.976c-0.733,0.733,-1.661,1.605,-2.783,2.616l-0.967,0.867zm0,-1.8c1.067,-0.956,1.944,-1.775,2.633,-2.459c0.689,-0.683,1.234,-1.277,1.634,-1.782c0.4,-0.506,0.677,-0.956,0.833,-1.351c0.156,-0.394,0.233,-0.786,0.233,-1.175c0,-0.666,-0.222,-1.222,-0.666,-1.666c-0.445,-0.445,-1,-0.667,-1.667,-0.667c-0.522,0,-1.006,0.147,-1.45,0.441c-0.444,0.295,-0.75,0.67,-0.917,1.126h-1.266c-0.167,-0.456,-0.473,-0.831,-0.917,-1.126c-0.444,-0.294,-0.928,-0.441,-1.45,-0.441c-0.667,0,-1.222,0.222,-1.667,0.667c-0.444,0.444,-0.666,1,-0.666,1.666c0,0.389,0.077,0.781,0.233,1.175c0.156,0.395,0.433,0.845,0.833,1.351c0.4,0.505,0.945,1.099,1.634,1.782c0.689,0.684,1.566,1.503,2.633,2.459z"
    fill="white" />
</svg>